<?xml version="1.0" standalone="no"?>
<!DOCTYPE svg PUBLIC "-//W3C//DTD SVG 1.1//EN" "http://www.w3.org/Graphics/SVG/1.1/DTD/svg11.dtd" >
<!--
2013-9-30: Created.
-->
<svg>
<metadata>
Created by iconfont
</metadata>
<defs>

<font id="iconfont" horiz-adv-x="1024" >
  <font-face
    font-family="iconfont"
    font-weight="500"
    font-stretch="normal"
    units-per-em="1024"
    ascent="896"
    descent="-128"
  />
    <missing-glyph />
    
    <glyph glyph-name="ellipsis" unicode="&#59120;" d="M128 384a64 64 0 1 1 128 0 64 64 0 0 1-128 0z m320 0a64 64 0 1 1 128 0 64 64 0 0 1-128 0z m320 0a64 64 0 1 1 128 0 64 64 0 0 1-128 0z"  horiz-adv-x="1024" />

    
    <glyph glyph-name="Gi-IOT_logo" unicode="&#58959;" d="M512-128L954.77399 127.957426V383.914851l-152.246134 83.105272v-248.97522L366.736072-38.082821 512-128zM802.527856 722.977549v-166.040246L954.77399 474.002328v166.040246l-152.246134 82.934975zM512 722.977549l221.386995-124.487611V764.530185L512 896 69.22601 640.042574V127.957426l221.386995-124.487611 442.77399 255.957426V508.572759l-152.075836 89.917179L512 640.042574l-221.386995-131.469815v-166.040246l221.386995 124.48761 69.311159-41.552636v-82.934974L290.613005 169.510062l-76.123067 48.534841 6.982206 338.8924L512 722.977549z"  horiz-adv-x="1024" />

    
    <glyph glyph-name="bianjixiugaixietianxiegenggaiqianming" unicode="&#59302;" d="M860.032 72a35.968 35.968 0 1 0 0-72H163.968a35.968 35.968 0 1 0 0 72h696.064zM691.84 757.44l130.112-130.112c14.08-14.08 14.08-36.864 0-50.88l-387.52-387.52a35.968 35.968 0 0 0-20.352-10.176l-151.936-21.824a36.032 36.032 0 0 0-40.768 40.704L243.2 349.632a36.032 36.032 0 0 0 10.24 20.288l387.456 387.52c14.08 14.08 36.864 14.08 50.944 0z m-25.472-76.352L312.768 327.488l-13.312-92.48 92.544 13.312 353.536 353.6-79.168 79.168z"  horiz-adv-x="1024" />

    
    <glyph glyph-name="fanhuishangyibufangxianghuituichukouxiangzuo" unicode="&#59303;" d="M473.472 694.08c13.888-13.952 14.08-36.416 0.384-50.56l-0.384-0.384L250.24 420.032h609.728a35.968 35.968 0 1 0 0-72H250.944l222.464-222.464c13.888-13.952 14.08-36.416 0.384-50.56l-0.384-0.384a36.032 36.032 0 0 0-50.56-0.384L139.392 357.76a36.224 36.224 0 0 0-4.864 5.632l3.84-4.48a35.648 35.648 0 0 0-0.384 50.432l284.608 284.736c14.08 14.08 36.864 14.08 50.944 0h-0.064z"  horiz-adv-x="1024" />

    
    <glyph glyph-name="guize" unicode="&#59304;" d="M752 768A144 144 0 0 0 896 624v-480A144 144 0 0 0 752 0h-480A144 144 0 0 0 128 144v480A144 144 0 0 0 272 768h480z m1.216-72H272c-39.36 0-71.36-31.616-72-70.784v-481.216c0-39.36 31.616-71.36 70.784-72h481.216c39.36 0 71.36 31.616 72 70.784V624c0 39.36-31.616 71.36-70.784 72zM416 352a96 96 0 0 0 90.56-64h251.456c5.504 0 9.984-4.48 9.984-9.984v-44.032c0-5.504-4.48-9.984-9.984-9.984h-251.52a96 96 0 0 0-180.992 0h-59.52A9.984 9.984 0 0 0 256 233.984v44.032c0 5.504 4.48 9.984 9.984 9.984h59.52c13.568 38.4 49.792 64 90.496 64z m0-64a32 32 0 1 1 0-64 32 32 0 0 1 0 64z m160 320a96 96 0 0 0 90.56-64h91.456c5.504 0 9.984-4.48 9.984-9.984v-44.032c0-5.504-4.48-9.984-9.984-9.984h-91.52a96 96 0 0 0-180.992 0h-219.52A9.984 9.984 0 0 0 256 489.984v44.032c0 5.504 4.48 9.984 9.984 9.984h219.52c13.568 38.4 49.792 64 90.496 64z m0-64a32 32 0 1 1 0-64 32 32 0 0 1 0 64z"  horiz-adv-x="1024" />

    
    <glyph glyph-name="jiantouxiangyouxiayitiao" unicode="&#59305;" d="M362.56 14.656a36.032 36.032 0 0 0-0.448 50.496l0.448 0.384 318.784 318.848-318.784 318.72a36.032 36.032 0 0 0-0.448 50.56l0.448 0.384a36.032 36.032 0 0 0 50.496 0.448l344.64-344.704c13.952-13.888 14.08-36.352 0.448-50.496L413.44 14.72a36.032 36.032 0 0 0-50.88 0v-0.064z"  horiz-adv-x="1024" />

    
    <glyph glyph-name="jiantoushangshanglashouqi" unicode="&#59306;" d="M146.368 186.176c13.952-13.888 36.416-14.08 50.56-0.448l0.32 0.448 318.784 318.72 318.848-318.72c13.952-13.888 36.416-14.08 50.56-0.448l0.32 0.448a36.032 36.032 0 0 1 0.448 50.496L541.504 581.312a35.968 35.968 0 0 1-50.496 0.448l-344.64-344.704a36.032 36.032 0 0 1 0-50.88z"  horiz-adv-x="1024" />

    
    <glyph glyph-name="shanchushouqi" unicode="&#59307;" d="M752 768A144 144 0 0 0 896 624v-480A144 144 0 0 0 752 0h-480A144 144 0 0 0 128 144v480A144 144 0 0 0 272 768h480z m0-72h-480c-39.296 0-71.36-31.488-72-70.784v-481.216c0-39.36 31.616-71.36 70.784-72h481.216c39.296 0 71.36 31.488 72 70.848V624c0 39.296-31.488 71.36-70.848 72h-1.152z m-57.984-276.032c5.504 0 9.984-4.48 9.984-9.984v-51.968c0-5.504-4.48-9.984-9.984-9.984H330.048A9.984 9.984 0 0 0 320 358.016v52.032c0 5.44 4.48 9.92 10.048 9.92h363.968z"  horiz-adv-x="1024" />

    
    <glyph glyph-name="riqishijianrili" unicode="&#59308;" d="M289.472 704v-72h-19.968c-39.36 0-71.36-31.616-72-70.784v-417.216c0-39.36 31.616-71.36 70.784-72h481.216c39.36 0 71.36 31.616 72 70.784V560c0 39.36-31.616 71.36-70.784 72h-13.248V704h12.032a144 144 0 0 0 144-144v-416A144 144 0 0 0 749.44 0h-480a144 144 0 0 0-144 144v416A144 144 0 0 0 269.44 704h20.032z m384-440a35.968 35.968 0 1 0 0-72h-320a35.968 35.968 0 1 0 0 72h320z m0 192a35.968 35.968 0 1 0 0-72h-320a36.032 36.032 0 0 0 0 72h320zM353.472 768c19.904 0 36.032-16.128 36.032-36.032v-119.936a36.032 36.032 0 0 0-72 0V731.968c0 19.84 16.128 35.968 35.968 35.968V768z m320 0c19.904 0 36.032-16.128 36.032-36.032v-119.936a36.032 36.032 0 0 0-72 0V731.968c0 19.84 16.128 35.968 35.968 35.968V768z m-64-64v-72h-192V704h192z"  horiz-adv-x="1024" />

    
    <glyph glyph-name="jiantouxiangzuoshangyitiao" unicode="&#59309;" d="M661.76 14.08a36.032 36.032 0 0 1 0.384 50.432l-0.448 0.448-318.784 318.784 318.784 318.784a36.032 36.032 0 0 1 0.448 50.56l-0.448 0.384a36.032 36.032 0 0 1-50.496 0.384L266.56 409.216a36.032 36.032 0 0 1-0.448-50.56l344.704-344.64c14.08-14.08 36.864-14.08 50.88 0l0.064 0.064z"  horiz-adv-x="1024" />

    
    <glyph glyph-name="shuaxingengxinjiazaishunshizhenqianjin" unicode="&#59310;" d="M397.44 780.8a413.12 413.12 0 0 0 430.72-142.528l47.04 27.2a12.224 12.224 0 0 0 18.24-12.16l-18.304-153.792a12.16 12.16 0 0 0-16.896-9.792l-142.4 61.056a12.288 12.288 0 0 0-1.344 21.888l50.56 29.12a341.056 341.056 0 1 1 37.568-385.024l71.296-19.072A412.992 412.992 0 1 0 397.376 780.8h0.064z"  horiz-adv-x="1024" />

    
    <glyph glyph-name="guanbicuowuquxiao" unicode="&#59311;" d="M857.472 728.448c13.888-13.952 14.08-36.48 0.384-50.56l-0.448-0.384-294.464-293.952 294.464-294.08a36.032 36.032 0 0 0-50.432-51.392l-0.384 0.448L512 332.736l-294.592-294.208a36.032 36.032 0 0 0-51.264 50.56l0.448 0.384 294.4 294.08-294.4 293.952a36.032 36.032 0 0 0 50.432 51.392l0.384-0.448L512 434.368l294.592 294.08c14.08 14.08 36.864 14.08 50.88 0z"  horiz-adv-x="1024" />

    
    <glyph glyph-name="sousuochaxunchakan" unicode="&#59312;" d="M182.656 713.6a305.6 305.6 0 0 0 432.064-0.704 305.792 305.792 0 0 0 33.152-393.856l195.584-195.52a46.976 46.976 0 0 0 0-66.496l-0.768-0.64a46.976 46.976 0 0 0-66.432 0l-195.008 194.944A305.728 305.728 0 0 0 183.36 281.6C63.872 401.024 63.552 594.56 182.72 713.6h-0.064z m50.944-50.944a233.472 233.472 0 0 1 0.64-330.24 233.472 233.472 0 0 1 330.24-0.64 233.472 233.472 0 0 1-0.64 330.24 233.472 233.472 0 0 1-330.24 0.64z"  horiz-adv-x="1024" />

    
    <glyph glyph-name="moxing" unicode="&#59313;" d="M548.032 822.208l325.44-187.968c22.272-12.8 36.032-36.608 36.032-62.336v-375.872c0-25.664-13.76-49.472-36.032-62.336l-325.44-187.904a72 72 0 0 0-72.064 0l-325.504 187.904a72 72 0 0 0-35.968 62.336V571.904c0 25.728 13.76 49.472 36.032 62.336l325.504 187.904a72 72 0 0 0 72 0v0.064z m289.472-291.776L547.968 363.2v-334.272l289.536 167.104V530.432z m-651.008 0v-334.4l289.536-167.04V363.2L186.432 530.368zM512 759.744l-289.536-167.04L512 425.664l289.536 167.104L512 759.872z"  horiz-adv-x="1024" />

    
    <glyph glyph-name="tianjiazengjiashouqi" unicode="&#59314;" d="M752 768A144 144 0 0 0 896 624v-480A144 144 0 0 0 752 0h-480A144 144 0 0 0 128 144v480A144 144 0 0 0 272 768h480z m0-72h-480c-39.296 0-71.36-31.488-72-70.784v-481.216c0-39.36 31.616-71.36 70.784-72h481.216c39.296 0 71.36 31.488 72 70.848V624c0 39.296-31.488 71.36-70.848 72h-1.152zM537.984 576c5.504 0 9.984-4.48 9.984-10.048v-145.92h146.048c5.504 0 9.984-4.48 9.984-10.048v-51.968c0-5.504-4.48-9.984-9.984-9.984H548.032v-146.048c0-5.504-4.48-9.984-10.048-9.984h-52.032a9.984 9.984 0 0 0-9.92 9.984V347.968H329.92A9.984 9.984 0 0 0 320 358.08v52.032c0 5.44 4.48 9.92 10.048 9.92h145.92V566.08c0 5.504 4.48 9.984 10.048 9.984h51.968z"  horiz-adv-x="1024" />

    
    <glyph glyph-name="zhengquexuanzhongqueding" unicode="&#59315;" d="M826.24 684.544a40 40 0 0 0 61.952-50.56l-0.448-0.576-456.192-548.992a40 40 0 0 0-62.464 1.28l-0.512 0.64-233.792 317.76a40 40 0 0 0 64 48l0.448-0.576 203.52-276.608 423.488 509.632z"  horiz-adv-x="1024" />

    
    <glyph glyph-name="zonglan" unicode="&#59316;" d="M480 352v-208A144 144 0 0 0 336 0h-64A144 144 0 0 0 128 144v64A144 144 0 0 0 272 352H480z m272 0A144 144 0 0 0 896 208v-64A144 144 0 0 0 752 0h-64a144 144 0 0 0-144 144V352h208zM408 280H272c-39.296 0-71.36-31.488-72-70.848v-65.152c0-37.312 28.544-68.48 65.728-71.744l6.272-0.256h64c37.312 0 68.48 28.544 71.744 65.728l0.256 6.272V280z m345.152 0H616v-136c0-37.312 28.544-68.48 65.728-71.744l6.272-0.256h64c37.312 0 68.48 28.544 71.744 65.728l0.256 6.272v64c0 39.296-31.488 71.36-70.848 72zM336 768A144 144 0 0 0 480 624V416H272A144 144 0 0 0 128 560v64A144 144 0 0 0 272 768h64z m416 0A144 144 0 0 0 896 624v-64a144 144 0 0 0-144-144H544V624A144 144 0 0 0 688 768h64zM337.216 696H272c-39.296 0-71.36-31.488-72-70.784V560c0-37.312 28.544-68.48 65.728-71.744l6.272-0.256h136V624c0 36.928-27.904 67.84-64.64 71.616l-6.144 0.384z m416 0H688c-39.296 0-71.36-31.488-72-70.784v-137.216h136c37.312 0 68.48 28.544 71.744 65.728l0.256 6.272v64c0 39.296-31.488 71.36-70.848 72z"  horiz-adv-x="1024" />

    
    <glyph glyph-name="shebei" unicode="&#59317;" d="M752 768A144 144 0 0 0 896 624v-480A144 144 0 0 0 752 0h-480A144 144 0 0 0 128 144v480A144 144 0 0 0 272 768h480z m72-536h-624v-88c0-39.36 31.616-71.36 70.784-72h481.216c39.296 0 71.36 31.488 72 70.848v89.152z m-491.008-48c5.568 0 9.984-4.48 9.984-9.984v-44.032c0-5.504-4.48-9.984-9.984-9.984h-44.032a9.984 9.984 0 0 0-9.984 9.984v44.032c0 5.504 4.48 9.984 10.048 9.984h43.968z m491.008 280h-624v-160h624v160z m-491.008-48c5.568 0 9.984-4.48 9.984-10.048v-43.968c0-5.504-4.48-9.984-9.984-9.984h-44.032a9.984 9.984 0 0 0-9.984 9.984v44.032c0 5.504 4.48 9.984 10.048 9.984h43.968z m420.16 280H272c-39.296 0-71.36-31.488-72-70.784v-89.216h624V624c0 39.296-31.488 71.36-70.848 72z m-420.16-48c5.568 0 9.984-4.48 9.984-10.048v-43.904c0-5.568-4.48-10.048-9.984-10.048h-44.032a10.048 10.048 0 0 0-9.92 10.048v43.904c0 5.568 4.48 10.048 9.92 10.048h44.032z"  horiz-adv-x="1024" />

    
    <glyph glyph-name="wenjianjiawenjian" unicode="&#59318;" d="M419.84 768c12.8 0 24.704-6.848 31.168-17.984l0.256-0.384 52.352-93.44h320.384c39.36 0 71.36-31.616 72-70.848v-441.344A144 144 0 0 0 754.368 0H272A144 144 0 0 0 128 141.632V624A144 144 0 0 0 269.632 768H419.84z m-21.12-72H272c-39.296 0-71.36-31.488-72-70.784v-481.216c0-39.36 31.616-71.36 70.784-72h481.216c39.296 0 71.36 31.488 72 70.848V584.192H461.44l-62.72 111.808z"  horiz-adv-x="1024" />

    
    <glyph glyph-name="ic_jiantou" unicode="&#59319;" d="M885.824 581.312a36.032 36.032 0 0 1-50.496 0.448l-0.384-0.448-318.784-318.784-318.848 318.784a36.032 36.032 0 0 1-50.496 0.448l-0.384-0.448a36.032 36.032 0 0 1-0.448-50.496l344.704-344.64c13.888-13.952 36.352-14.08 50.496-0.448l344.64 344.704a36.032 36.032 0 0 1 0 50.88z"  horiz-adv-x="1024" />

    
    <glyph glyph-name="xitong" unicode="&#59320;" d="M724.032 72a35.968 35.968 0 1 0 0-72H299.904a35.968 35.968 0 1 0 0 72h424.128zM752 768A144 144 0 0 0 896 624v-352A144 144 0 0 0 752 128h-480A144 144 0 0 0 128 272v352A144 144 0 0 0 272 768h480z m1.216-72H272c-39.36 0-71.36-31.616-72-70.784V272c0-39.36 31.616-71.36 70.784-72h481.216c39.36 0 71.36 31.616 72 70.784V624c0 39.36-31.616 71.36-70.784 72zM537.984 624c5.568 0 9.984-4.48 9.984-9.984v-30.72c12.16-3.2 23.68-8 34.24-14.144l21.76 21.696c3.84 3.84 10.24 3.84 14.08 0l36.8-36.8c3.84-3.84 3.84-10.24 0-14.08l-21.76-21.76c6.208-10.56 11.008-22.08 14.272-34.176h30.656c5.504 0 9.984-4.48 9.984-10.048v-51.968c0-5.568-4.48-10.048-9.984-10.048h-30.72c-3.2-12.16-8-23.616-14.144-34.176l21.696-21.76c3.84-3.84 3.84-10.24 0-14.08l-36.8-36.8c-3.84-3.84-10.24-3.84-14.08 0l-21.76 21.76a139.136 139.136 0 0 0-34.176-14.208v-30.72c0-5.504-4.48-9.984-10.048-9.984h-51.968a9.984 9.984 0 0 0-10.048 9.984v30.72a137.472 137.472 0 0 0-34.176 14.144l-21.76-21.696c-3.84-3.84-10.24-3.84-14.08 0l-36.8 36.8a9.984 9.984 0 0 0 0 14.08l21.76 21.76a139.136 139.136 0 0 0-14.208 34.176h-30.72a9.984 9.984 0 0 0-9.984 10.048v51.968c0 5.568 4.48 10.048 9.984 10.048h30.72c3.2 12.16 8 23.616 14.144 34.176l-21.696 21.76a9.984 9.984 0 0 0 0 14.08l36.8 36.8c3.84 3.84 10.24 3.84 14.08 0l21.76-21.76c10.56 6.208 22.08 11.008 34.176 14.272v30.656c0 5.504 4.48 9.984 10.048 9.984h51.968zM512 515.968a67.968 67.968 0 1 1 0-135.936 67.968 67.968 0 0 1 0 135.936z"  horiz-adv-x="1024" />

    


  </font>
</defs>
</svg>
