<?xml version="1.0" encoding="UTF-8"?>
<svg width="138px" height="28px" viewBox="0 0 138 28" version="1.1" xmlns="http://www.w3.org/2000/svg" xmlns:xlink="http://www.w3.org/1999/xlink">
    <title>编组 2</title>
    <g id="鲁班（东智物联平台）控件组" stroke="none" stroke-width="1" fill="none" fill-rule="evenodd">
        <g id="顶栏导航/控制台" transform="translate(-60.000000, -10.000000)">
            <g id="编组-2" transform="translate(60.000000, 10.000000)">
                <g id="Gi-IOT" fill-rule="nonzero">
                    <rect id="矩形" fill="#000000" opacity="0" x="0" y="0" width="28" height="28"></rect>
                    <path d="M14,28 L26.11,21 L26.11,14 L21.9473333,11.732 L21.9473333,18.5406667 L10.0286667,25.5406667 L14,28 Z M21.9473333,4.72733332 L21.9473333,9.268 L26.11,11.5406667 L26.11,7 L21.9473333,4.72733332 L21.9473333,4.72733332 Z" id="形状" fill="#1740DC" opacity="0.5"></path>
                    <polygon id="路径" fill="#1740DC" points="14 4.72733332 20.0526667 8.134 20.0526667 3.59333332 14 0 1.89 7 1.89 21 7.94733332 24.4066667 20.0526667 17.4066667 20.0526667 10.5933333 15.89 8.134 14 7 7.94733332 10.5933333 7.94733332 15.134 14 11.732 15.89 12.866 15.89 15.134 7.94733332 19.866 5.866 18.5406667 6.05266668 9.268"></polygon>
                </g>
                <text id="东智物联平台" font-family="FZLTZHK--GBK1-0, Lantinghei SC" font-size="18" font-weight="500" fill="#1740DC">
                    <tspan x="30" y="20">东智物联平台</tspan>
                </text>
            </g>
        </g>
    </g>
</svg>